. 
  
http://www.torrentday.com/        :     The Hottest Private Tracker On The Net!!!


               www . TorrentDay . Com 
(((((((((((((= Enjoy No RAR releases =))))))))))))))))))))


...................................NFO:....................................

.[img]http://leetleech.org/images/02738764170603494812.png[/img] 

[b]Beyond Sherwood Forest 2009 BRRip XviD AC3-LEGi0N 

[img]http://leetleech.org/images/48874973695367351744.png[/img]
[color=red]General[/color]
Format:AVI 
File size: 801 MiB
Duration: 1h 33mn
Overall bit rate: 1 200 Kbps
IMDb Rating: 4.9/10   296 votes 
Genre: Fantasy
Release Date: 28 November 2009  
IMDb Link: http://www.imdb.com/title/tt1331323/
Source: 1080p BluRay x264-iBEX   

[color=red]Video[/color]
Format: MPEG-4 Visual
Format profile: Streaming Video@L1
Format settings, BVOP: Yes
Format settings, QPel: No
Format settings, GMC: No warppoints
Format settings, Matrix: Default (H.263)
Muxing mode: Packed bitstream
Codec ID: XVID
Bit rate: 998 Kbps
Width: 640 pixels
Height: 352 pixels
Display aspect ratio: 16/9
Frame rate: 23.976 fps
Resolution: 24 bits
Colorimetry: 4:2:0
Scan type: Progressive
Bits/(Pixel*Frame): 0.185
Stream size: 666 MiB (83%)

[color=red]Audio[/color]
Format: AC-3
Bit rate mode: Constant
Bit rate: 192 Kbps
Channel(s): 6 channels
Sampling rate: 48.0 KHz
Stream size: 128 MiB (16%)

[img]http://leetleech.org/images/89524873606771859129.png[/img]
England 1174: King Richard is away fighting the Crusade, his brother 
Prince John has been left in charge. In order to further international 
diplomatic relations with Norway, the beautiful young Maid Marian is 
to be married off to a prince. A cursed girl who can change into a 
ferocious dragon is used to find and pacify Robin Hood.

[img]http://leetleech.org/images/84434050717770922575.png[/img]
Robin Dunne	... 	Robin Hood
Erica Durance	... 	Maid Marian
Julian Sands	... 	Malcolm
Katharine Isabelle	... 	Alina
Mark Gibbon	... 	Little John
Cainan Wiebe	... 	Gareth
Richard de Klerk	... 	Will Scarlet
Bill Dow	... 	Friar Tuck
Brent Stait	... 	Guy of Gisborne
Paul Lazenby	... 	Bart Bartholemew
David Palffy	... 	Sylvan Elder
Terence Kelly	... 	Fitzwater
Rowen Kahn	... 	Young Robin Hood
Anna Louise Sargeant	... 	Young Marion
John Novak	... 	Roland   

[color=red]GREETZ[/color]
Noir | xXTHORNXx | bigimac | LUSi |

kempas | KaN1vE | mike160 | skillz |

Lungbuster | Sheikh | DiLLoN1369 |

FLAWL3SS | AND ALL P2P!

[color=red]SAMPLE INCLUDED[/color][/b]

[img]http://leetleech.org/images/95521316153253938506.png[/img]
[img]http://leetleech.org/images/46144473567098366915.png[/img] 
[img]http://leetleech.org/images/96450780423328973217.png[/img] 
[img]http://leetleech.org/images/17375021391808564864.png[/img] 
[img]http://leetleech.org/images/19156054406074721820.png[/img]
[img]http://leetleech.org/images/61114965091524509821.png[/img]
[img]http://leetleech.org/images/20113120694741331121.png[/img]
[img]http://leetleech.org/images/59378038954269481655.png[/img]
[img]http://leetleech.org/images/65666220263442745634.png[/img]
[img]http://leetleech.org/images/26187507027526015145.png[/img]
[img]http://leetleech.org/images/12755021538703799215.png[/img]